<svg width="289" height="86" viewBox="0 0 289 86" fill="none" xmlns="http://www.w3.org/2000/svg">
<path d="M104.624 39.192C102.96 39.192 101.467 38.7973 100.144 38.008C98.8427 37.2187 97.808 36.152 97.04 34.808C96.2933 33.464 95.92 31.9493 95.92 30.264C95.92 28.5573 96.272 27.032 96.976 25.688C97.68 24.344 98.6507 23.288 99.888 22.52C101.125 21.7307 102.544 21.336 104.144 21.336C105.509 21.336 106.757 21.6027 107.888 22.136C109.019 22.648 110 23.4373 110.832 24.504C111.003 24.7173 111.067 24.9413 111.024 25.176C110.981 25.4107 110.843 25.6027 110.608 25.752C110.416 25.9013 110.203 25.9653 109.968 25.944C109.733 25.9013 109.531 25.7733 109.36 25.56C107.995 23.9387 106.256 23.128 104.144 23.128C102.885 23.128 101.776 23.4373 100.816 24.056C99.8773 24.6747 99.1413 25.5173 98.608 26.584C98.096 27.6507 97.84 28.8773 97.84 30.264C97.84 31.608 98.128 32.824 98.704 33.912C99.28 34.9787 100.069 35.832 101.072 36.472C102.096 37.0907 103.28 37.4 104.624 37.4C105.499 37.4 106.32 37.272 107.088 37.016C107.877 36.76 108.56 36.3653 109.136 35.832C109.328 35.6613 109.541 35.5653 109.776 35.544C110.011 35.5227 110.213 35.5973 110.384 35.768C110.597 35.96 110.704 36.184 110.704 36.44C110.725 36.6747 110.64 36.8773 110.448 37.048C108.891 38.4773 106.949 39.192 104.624 39.192ZM124.137 39.192C122.473 39.192 120.969 38.808 119.625 38.04C118.281 37.272 117.214 36.2267 116.425 34.904C115.657 33.5813 115.251 32.088 115.209 30.424V14.968C115.209 14.6693 115.294 14.4347 115.465 14.264C115.657 14.0933 115.891 14.008 116.169 14.008C116.467 14.008 116.702 14.0933 116.873 14.264C117.043 14.4347 117.129 14.6693 117.129 14.968V24.952C117.811 23.8427 118.761 22.9573 119.977 22.296C121.214 21.6347 122.601 21.304 124.137 21.304C125.843 21.304 127.369 21.6987 128.713 22.488C130.078 23.256 131.145 24.312 131.913 25.656C132.702 27 133.097 28.5253 133.097 30.232C133.097 31.9387 132.702 33.4747 131.913 34.84C131.145 36.184 130.078 37.2507 128.713 38.04C127.369 38.808 125.843 39.192 124.137 39.192ZM124.137 37.4C125.481 37.4 126.675 37.0907 127.721 36.472C128.787 35.832 129.63 34.9787 130.249 33.912C130.867 32.824 131.177 31.5973 131.177 30.232C131.177 28.8667 130.867 27.6507 130.249 26.584C129.63 25.5173 128.787 24.6747 127.721 24.056C126.675 23.416 125.481 23.096 124.137 23.096C122.814 23.096 121.619 23.416 120.553 24.056C119.486 24.6747 118.643 25.5173 118.025 26.584C117.427 27.6507 117.129 28.8667 117.129 30.232C117.129 31.5973 117.427 32.824 118.025 33.912C118.643 34.9787 119.486 35.832 120.553 36.472C121.619 37.0907 122.814 37.4 124.137 37.4ZM144.424 39C143.251 38.9787 142.206 38.712 141.288 38.2C140.371 37.6667 139.656 36.9413 139.144 36.024C138.632 35.0853 138.376 34.0293 138.376 32.856V16.92C138.376 16.6213 138.462 16.3867 138.632 16.216C138.824 16.024 139.059 15.928 139.336 15.928C139.635 15.928 139.87 16.024 140.04 16.216C140.232 16.3867 140.328 16.6213 140.328 16.92V32.856C140.328 34.0933 140.712 35.1067 141.48 35.896C142.248 36.664 143.24 37.048 144.456 37.048H145.16C145.459 37.048 145.694 37.144 145.864 37.336C146.056 37.5067 146.152 37.7413 146.152 38.04C146.152 38.3173 146.056 38.552 145.864 38.744C145.694 38.9147 145.459 39 145.16 39H144.424ZM135.88 23.864C135.624 23.864 135.411 23.7893 135.24 23.64C135.091 23.4693 135.016 23.256 135.016 23C135.016 22.744 135.091 22.5413 135.24 22.392C135.411 22.2213 135.624 22.136 135.88 22.136H144.552C144.808 22.136 145.011 22.2213 145.16 22.392C145.331 22.5413 145.416 22.744 145.416 23C145.416 23.256 145.331 23.4693 145.16 23.64C145.011 23.7893 144.808 23.864 144.552 23.864H135.88ZM157.523 39.192C155.816 39.192 154.28 38.808 152.915 38.04C151.571 37.2507 150.504 36.184 149.715 34.84C148.947 33.4747 148.563 31.9493 148.563 30.264C148.563 28.5573 148.947 27.032 149.715 25.688C150.504 24.3227 151.571 23.256 152.915 22.488C154.28 21.6987 155.816 21.304 157.523 21.304C159.229 21.304 160.755 21.6987 162.099 22.488C163.443 23.256 164.499 24.3227 165.267 25.688C166.056 27.032 166.451 28.5573 166.451 30.264L165.651 31.544C165.651 32.9947 165.288 34.296 164.563 35.448C163.859 36.6 162.899 37.5173 161.683 38.2C160.467 38.8613 159.08 39.192 157.523 39.192ZM157.523 37.4C158.867 37.4 160.061 37.0907 161.107 36.472C162.173 35.832 163.005 34.9787 163.603 33.912C164.221 32.824 164.531 31.608 164.531 30.264C164.531 28.8987 164.221 27.6827 163.603 26.616C163.005 25.528 162.173 24.6747 161.107 24.056C160.061 23.416 158.867 23.096 157.523 23.096C156.2 23.096 155.005 23.416 153.939 24.056C152.872 24.6747 152.029 25.528 151.411 26.616C150.792 27.6827 150.483 28.8987 150.483 30.264C150.483 31.608 150.792 32.824 151.411 33.912C152.029 34.9787 152.872 35.832 153.939 36.472C155.005 37.0907 156.2 37.4 157.523 37.4ZM165.491 39C165.213 39 164.979 38.9147 164.787 38.744C164.616 38.552 164.531 38.3173 164.531 38.04V32.184L165.139 30.264H166.451V38.04C166.451 38.3173 166.365 38.552 166.195 38.744C166.024 38.9147 165.789 39 165.491 39ZM174.121 39C173.311 39 172.585 38.776 171.945 38.328C171.327 37.88 170.836 37.2613 170.473 36.472C170.132 35.6827 169.961 34.7653 169.961 33.72V14.968C169.961 14.6693 170.047 14.4347 170.217 14.264C170.409 14.0933 170.644 14.008 170.921 14.008C171.22 14.008 171.455 14.0933 171.625 14.264C171.796 14.4347 171.881 14.6693 171.881 14.968V33.72C171.881 34.7013 172.084 35.512 172.489 36.152C172.916 36.7707 173.46 37.08 174.121 37.08H174.921C175.156 37.08 175.348 37.1653 175.497 37.336C175.647 37.5067 175.721 37.7413 175.721 38.04C175.721 38.3173 175.636 38.552 175.465 38.744C175.295 38.9147 175.06 39 174.761 39H174.121ZM180.186 39C179.909 39 179.674 38.9147 179.482 38.744C179.312 38.552 179.226 38.3173 179.226 38.04V22.456C179.226 22.1573 179.312 21.9227 179.482 21.752C179.674 21.5813 179.909 21.496 180.186 21.496C180.485 21.496 180.72 21.5813 180.89 21.752C181.061 21.9227 181.146 22.1573 181.146 22.456V38.04C181.146 38.3173 181.061 38.552 180.89 38.744C180.72 38.9147 180.485 39 180.186 39ZM180.154 17.816C179.749 17.816 179.397 17.6773 179.098 17.4C178.821 17.1013 178.682 16.7387 178.682 16.312C178.682 15.8213 178.832 15.4587 179.13 15.224C179.45 14.968 179.802 14.84 180.186 14.84C180.549 14.84 180.88 14.968 181.178 15.224C181.498 15.4587 181.658 15.8213 181.658 16.312C181.658 16.7387 181.509 17.1013 181.21 17.4C180.933 17.6773 180.581 17.816 180.154 17.816ZM194.915 39.192C193.208 39.192 191.672 38.808 190.307 38.04C188.963 37.2507 187.896 36.184 187.107 34.84C186.339 33.4747 185.955 31.9493 185.955 30.264C185.955 28.5573 186.339 27.032 187.107 25.688C187.896 24.3227 188.963 23.256 190.307 22.488C191.672 21.6987 193.208 21.304 194.915 21.304C196.622 21.304 198.147 21.6987 199.491 22.488C200.835 23.256 201.891 24.3227 202.659 25.688C203.448 27.032 203.843 28.5573 203.843 30.264L203.043 31.544C203.043 32.9947 202.68 34.296 201.955 35.448C201.251 36.6 200.291 37.5173 199.075 38.2C197.859 38.8613 196.472 39.192 194.915 39.192ZM194.915 37.4C196.259 37.4 197.454 37.0907 198.499 36.472C199.566 35.832 200.398 34.9787 200.995 33.912C201.614 32.824 201.923 31.608 201.923 30.264C201.923 28.8987 201.614 27.6827 200.995 26.616C200.398 25.528 199.566 24.6747 198.499 24.056C197.454 23.416 196.259 23.096 194.915 23.096C193.592 23.096 192.398 23.416 191.331 24.056C190.264 24.6747 189.422 25.528 188.803 26.616C188.184 27.6827 187.875 28.8987 187.875 30.264C187.875 31.608 188.184 32.824 188.803 33.912C189.422 34.9787 190.264 35.832 191.331 36.472C192.398 37.0907 193.592 37.4 194.915 37.4ZM202.883 39C202.606 39 202.371 38.9147 202.179 38.744C202.008 38.552 201.923 38.3173 201.923 38.04V32.184L202.531 30.264H203.843V38.04C203.843 38.3173 203.758 38.552 203.587 38.744C203.416 38.9147 203.182 39 202.883 39ZM97.232 67.512C96.7627 67.512 96.368 67.352 96.048 67.032C95.7493 66.7333 95.6 66.3493 95.6 65.88C95.6 65.4107 95.76 65.0267 96.08 64.728C96.4 64.4293 96.784 64.28 97.232 64.28C97.68 64.28 98.0533 64.44 98.352 64.76C98.672 65.0587 98.832 65.432 98.832 65.88C98.832 66.328 98.672 66.712 98.352 67.032C98.0533 67.352 97.68 67.512 97.232 67.512ZM110.678 67.192C108.971 67.192 107.435 66.808 106.07 66.04C104.726 65.2507 103.659 64.184 102.87 62.84C102.102 61.4747 101.718 59.9387 101.718 58.232C101.718 56.5253 102.102 55 102.87 53.656C103.659 52.312 104.726 51.256 106.07 50.488C107.435 49.6987 108.971 49.304 110.678 49.304C112.214 49.304 113.59 49.6347 114.806 50.296C116.043 50.9573 117.003 51.8427 117.686 52.952V42.968C117.686 42.6693 117.771 42.4347 117.942 42.264C118.134 42.0933 118.368 42.008 118.646 42.008C118.944 42.008 119.179 42.0933 119.35 42.264C119.52 42.4347 119.606 42.6693 119.606 42.968V58.424C119.584 60.088 119.179 61.5813 118.39 62.904C117.6 64.2267 116.534 65.272 115.19 66.04C113.867 66.808 112.363 67.192 110.678 67.192ZM110.678 65.4C112.022 65.4 113.216 65.0907 114.262 64.472C115.328 63.832 116.16 62.9787 116.758 61.912C117.376 60.824 117.686 59.5973 117.686 58.232C117.686 56.8667 117.376 55.6507 116.758 54.584C116.16 53.5173 115.328 52.6747 114.262 52.056C113.216 51.416 112.022 51.096 110.678 51.096C109.355 51.096 108.16 51.416 107.094 52.056C106.027 52.6747 105.184 53.5173 104.566 54.584C103.947 55.6507 103.638 56.8667 103.638 58.232C103.638 59.5973 103.947 60.824 104.566 61.912C105.184 62.9787 106.027 63.832 107.094 64.472C108.16 65.0907 109.355 65.4 110.678 65.4ZM132.469 67.16C130.784 67.16 129.28 66.7867 127.957 66.04C126.656 65.272 125.632 64.216 124.885 62.872C124.138 61.528 123.765 59.992 123.765 58.264C123.765 56.5147 124.117 54.9787 124.821 53.656C125.525 52.312 126.496 51.256 127.733 50.488C128.97 49.72 130.389 49.336 131.989 49.336C133.568 49.336 134.965 49.7093 136.181 50.456C137.397 51.1813 138.346 52.1947 139.029 53.496C139.712 54.776 140.053 56.2587 140.053 57.944C140.053 58.2213 139.968 58.4453 139.797 58.616C139.626 58.7653 139.402 58.84 139.125 58.84H125.045V57.176H139.637L138.229 58.232C138.272 56.8453 138.037 55.6187 137.525 54.552C137.013 53.4853 136.277 52.6533 135.317 52.056C134.378 51.4373 133.269 51.128 131.989 51.128C130.773 51.128 129.685 51.4373 128.725 52.056C127.786 52.6533 127.04 53.4853 126.485 54.552C125.952 55.6187 125.685 56.856 125.685 58.264C125.685 59.6507 125.973 60.8773 126.549 61.944C127.125 63.0107 127.925 63.8533 128.949 64.472C129.973 65.0693 131.146 65.368 132.469 65.368C133.301 65.368 134.133 65.2293 134.965 64.952C135.818 64.6533 136.49 64.2693 136.981 63.8C137.152 63.6293 137.354 63.544 137.589 63.544C137.845 63.5227 138.058 63.5867 138.229 63.736C138.464 63.928 138.581 64.1413 138.581 64.376C138.602 64.6107 138.506 64.824 138.293 65.016C137.61 65.6347 136.714 66.1467 135.605 66.552C134.517 66.9573 133.472 67.16 132.469 67.16ZM149.537 67.192C148.428 67.192 147.265 66.9893 146.049 66.584C144.833 66.1787 143.82 65.496 143.009 64.536C142.838 64.3227 142.764 64.0987 142.785 63.864C142.828 63.608 142.966 63.3947 143.201 63.224C143.414 63.0747 143.638 63.0213 143.873 63.064C144.129 63.1067 144.332 63.224 144.481 63.416C145.1 64.1413 145.846 64.6533 146.721 64.952C147.617 65.2293 148.588 65.368 149.633 65.368C151.425 65.368 152.694 65.048 153.441 64.408C154.188 63.768 154.561 63.0213 154.561 62.168C154.561 61.336 154.156 60.6533 153.345 60.12C152.556 59.5653 151.329 59.1707 149.665 58.936C147.532 58.6373 145.953 58.0613 144.929 57.208C143.905 56.3547 143.393 55.3627 143.393 54.232C143.393 53.1653 143.66 52.2693 144.193 51.544C144.726 50.7973 145.452 50.2427 146.369 49.88C147.308 49.496 148.374 49.304 149.569 49.304C151.02 49.304 152.246 49.5707 153.249 50.104C154.252 50.616 155.062 51.3093 155.681 52.184C155.852 52.3973 155.905 52.632 155.841 52.888C155.798 53.1227 155.638 53.3147 155.361 53.464C155.148 53.5707 154.924 53.6027 154.689 53.56C154.454 53.5173 154.252 53.3893 154.081 53.176C153.548 52.4933 152.897 51.9813 152.129 51.64C151.382 51.2773 150.508 51.096 149.505 51.096C148.161 51.096 147.116 51.384 146.369 51.96C145.622 52.536 145.249 53.2293 145.249 54.04C145.249 54.5947 145.398 55.0853 145.697 55.512C146.017 55.9173 146.529 56.2693 147.233 56.568C147.937 56.8453 148.876 57.0693 150.049 57.24C151.649 57.4533 152.908 57.816 153.825 58.328C154.764 58.84 155.425 59.4373 155.809 60.12C156.214 60.7813 156.417 61.496 156.417 62.264C156.417 63.2667 156.097 64.1413 155.457 64.888C154.817 65.6347 153.974 66.2107 152.929 66.616C151.884 67 150.753 67.192 149.537 67.192ZM161.701 67C161.424 67 161.189 66.9147 160.997 66.744C160.827 66.552 160.741 66.3173 160.741 66.04V50.456C160.741 50.1573 160.827 49.9227 160.997 49.752C161.189 49.5813 161.424 49.496 161.701 49.496C162 49.496 162.235 49.5813 162.405 49.752C162.576 49.9227 162.661 50.1573 162.661 50.456V66.04C162.661 66.3173 162.576 66.552 162.405 66.744C162.235 66.9147 162 67 161.701 67ZM161.669 45.816C161.264 45.816 160.912 45.6773 160.613 45.4C160.336 45.1013 160.197 44.7387 160.197 44.312C160.197 43.8213 160.347 43.4587 160.645 43.224C160.965 42.968 161.317 42.84 161.701 42.84C162.064 42.84 162.395 42.968 162.693 43.224C163.013 43.4587 163.173 43.8213 163.173 44.312C163.173 44.7387 163.024 45.1013 162.725 45.4C162.448 45.6773 162.096 45.816 161.669 45.816ZM176.43 67.192C174.681 67.192 173.134 66.808 171.79 66.04C170.446 65.272 169.39 64.216 168.622 62.872C167.854 61.528 167.47 59.992 167.47 58.264C167.47 56.5147 167.865 54.968 168.654 53.624C169.443 52.28 170.51 51.224 171.854 50.456C173.219 49.688 174.745 49.304 176.43 49.304C178.179 49.304 179.715 49.688 181.038 50.456C182.382 51.224 183.438 52.28 184.206 53.624C184.974 54.968 185.358 56.5147 185.358 58.264L184.238 59.544C184.238 61.0373 183.907 62.36 183.246 63.512C182.585 64.664 181.667 65.5707 180.494 66.232C179.321 66.872 177.966 67.192 176.43 67.192ZM176.558 73.688C174.787 73.688 173.273 73.3573 172.014 72.696C170.777 72.0347 169.753 71.192 168.942 70.168C168.771 69.9547 168.686 69.7307 168.686 69.496C168.686 69.2613 168.793 69.0693 169.006 68.92C169.219 68.7493 169.465 68.6853 169.742 68.728C170.041 68.7707 170.265 68.9093 170.414 69.144C171.075 69.9333 171.918 70.584 172.942 71.096C173.966 71.6293 175.171 71.896 176.558 71.896C177.881 71.896 179.054 71.576 180.078 70.936C181.123 70.296 181.945 69.4107 182.542 68.28C183.139 67.1707 183.438 65.9227 183.438 64.536V59.448L184.302 58.264H185.358V64.536C185.358 66.264 184.974 67.8213 184.206 69.208C183.438 70.5947 182.393 71.6827 181.07 72.472C179.747 73.2827 178.243 73.688 176.558 73.688ZM176.43 65.4C177.795 65.4 179.001 65.1013 180.046 64.504C181.113 63.8853 181.945 63.0427 182.542 61.976C183.139 60.888 183.438 59.6507 183.438 58.264C183.438 56.856 183.139 55.6187 182.542 54.552C181.945 53.464 181.113 52.6213 180.046 52.024C179.001 51.4053 177.795 51.096 176.43 51.096C175.065 51.096 173.849 51.4053 172.782 52.024C171.715 52.6213 170.883 53.464 170.286 54.552C169.689 55.6187 169.39 56.856 169.39 58.264C169.39 59.6507 169.689 60.888 170.286 61.976C170.883 63.0427 171.715 63.8853 172.782 64.504C173.849 65.1013 175.065 65.4 176.43 65.4ZM204.645 67C204.367 67 204.133 66.9147 203.941 66.744C203.77 66.552 203.685 66.3173 203.685 66.04V57.432C203.685 56.024 203.407 54.8613 202.853 53.944C202.319 53.0267 201.583 52.344 200.645 51.896C199.727 51.4267 198.682 51.192 197.509 51.192C196.357 51.192 195.322 51.416 194.405 51.864C193.487 52.2907 192.762 52.888 192.229 53.656C191.695 54.424 191.429 55.288 191.429 56.248H189.829C189.914 54.9253 190.309 53.7413 191.013 52.696C191.717 51.6293 192.634 50.7973 193.765 50.2C194.895 49.5813 196.143 49.272 197.509 49.272C199.045 49.272 200.421 49.592 201.637 50.232C202.874 50.8507 203.845 51.768 204.549 52.984C205.253 54.1787 205.605 55.6613 205.605 57.432V66.04C205.605 66.3173 205.509 66.552 205.317 66.744C205.146 66.9147 204.922 67 204.645 67ZM190.469 67C190.191 67 189.957 66.9147 189.765 66.744C189.594 66.552 189.509 66.3173 189.509 66.04V50.456C189.509 50.1573 189.594 49.9227 189.765 49.752C189.957 49.5813 190.191 49.496 190.469 49.496C190.767 49.496 191.002 49.5813 191.173 49.752C191.343 49.9227 191.429 50.1573 191.429 50.456V66.04C191.429 66.3173 191.343 66.552 191.173 66.744C191.002 66.9147 190.767 67 190.469 67ZM216.352 67.192C215.243 67.192 214.08 66.9893 212.864 66.584C211.648 66.1787 210.635 65.496 209.824 64.536C209.653 64.3227 209.579 64.0987 209.6 63.864C209.643 63.608 209.781 63.3947 210.016 63.224C210.229 63.0747 210.453 63.0213 210.688 63.064C210.944 63.1067 211.147 63.224 211.296 63.416C211.915 64.1413 212.661 64.6533 213.536 64.952C214.432 65.2293 215.403 65.368 216.448 65.368C218.24 65.368 219.509 65.048 220.256 64.408C221.003 63.768 221.376 63.0213 221.376 62.168C221.376 61.336 220.971 60.6533 220.16 60.12C219.371 59.5653 218.144 59.1707 216.48 58.936C214.347 58.6373 212.768 58.0613 211.744 57.208C210.72 56.3547 210.208 55.3627 210.208 54.232C210.208 53.1653 210.475 52.2693 211.008 51.544C211.541 50.7973 212.267 50.2427 213.184 49.88C214.123 49.496 215.189 49.304 216.384 49.304C217.835 49.304 219.061 49.5707 220.064 50.104C221.067 50.616 221.877 51.3093 222.496 52.184C222.667 52.3973 222.72 52.632 222.656 52.888C222.613 53.1227 222.453 53.3147 222.176 53.464C221.963 53.5707 221.739 53.6027 221.504 53.56C221.269 53.5173 221.067 53.3893 220.896 53.176C220.363 52.4933 219.712 51.9813 218.944 51.64C218.197 51.2773 217.323 51.096 216.32 51.096C214.976 51.096 213.931 51.384 213.184 51.96C212.437 52.536 212.064 53.2293 212.064 54.04C212.064 54.5947 212.213 55.0853 212.512 55.512C212.832 55.9173 213.344 56.2693 214.048 56.568C214.752 56.8453 215.691 57.0693 216.864 57.24C218.464 57.4533 219.723 57.816 220.64 58.328C221.579 58.84 222.24 59.4373 222.624 60.12C223.029 60.7813 223.232 61.496 223.232 62.264C223.232 63.2667 222.912 64.1413 222.272 64.888C221.632 65.6347 220.789 66.2107 219.744 66.616C218.699 67 217.568 67.192 216.352 67.192ZM243.451 69.28C242.785 69.2267 242.238 69.08 241.811 68.84C241.385 68.6 240.878 68.4267 240.291 68.32L240.411 68.24L240.731 68.12V68.04L240.211 68.24L239.891 68.04V67.72C239.491 67.7467 239.171 67.6 238.931 67.28C238.691 66.9867 238.425 66.7067 238.131 66.44V66.12H237.811C237.758 65.9333 237.691 65.7467 237.611 65.56C237.531 65.3733 237.438 65.1867 237.331 65H237.171L236.771 64.36L236.851 63.8H236.531C236.505 63.7467 236.505 63.68 236.531 63.6C236.558 63.4933 236.611 63.4533 236.691 63.48L236.611 63.16L236.291 63L236.531 62.92C236.425 62.8933 236.345 62.84 236.291 62.76C236.265 62.68 236.238 62.6 236.211 62.52C236.345 62.3333 236.371 62.1467 236.291 61.96L235.971 61.8C235.865 61.64 235.798 61.44 235.771 61.2C235.745 60.9333 235.731 60.64 235.731 60.32C235.731 59.7333 235.771 59.0933 235.851 58.4C235.958 57.7067 236.051 57.0533 236.131 56.44C236.238 55.8 236.291 55.3067 236.291 54.96L236.451 54.8L236.531 54.4L236.931 54.24L236.611 53.92L236.771 53.44C236.985 53.28 237.118 53.12 237.171 52.96C237.251 52.7733 237.291 52.6133 237.291 52.48V52.24C237.291 52.1067 237.318 52.0133 237.371 51.96C237.425 51.88 237.545 51.8267 237.731 51.8V51.16L238.091 51.36L237.811 51C237.838 51.0267 237.865 51.04 237.891 51.04C237.971 51.04 238.051 50.9333 238.131 50.72C238.211 50.5067 238.265 50.3067 238.291 50.12L238.851 49.8L238.771 49.4C239.065 49.2933 239.251 49.1333 239.331 48.92L239.171 48.84H239.251C239.411 48.52 239.625 48.2933 239.891 48.16C240.158 48 240.358 47.88 240.491 47.8C240.651 47.6933 240.651 47.56 240.491 47.4H240.571L241.131 46.76L241.331 47L241.531 46.68H241.611C241.878 46.2267 242.251 46.0133 242.731 46.04L242.811 45.72C243.105 45.4533 243.451 45.2667 243.851 45.16C244.251 45.0533 244.625 45.0267 244.971 45.08C245.025 45.0267 245.158 44.9867 245.371 44.96C245.585 44.9067 245.771 44.8933 245.931 44.92C246.091 44.92 246.091 45 245.931 45.16L245.611 45.56H245.051C244.731 45.7467 244.505 45.9467 244.371 46.16C244.238 46.3467 243.931 46.44 243.451 46.44C243.478 46.7067 243.411 46.9333 243.251 47.12C243.118 47.28 242.971 47.4533 242.811 47.64L242.731 47.32C242.705 47.2933 242.665 47.28 242.611 47.28C242.585 47.28 242.571 47.3067 242.571 47.36C242.571 47.4933 242.625 47.6133 242.731 47.72C242.598 47.9333 242.411 48.0667 242.171 48.12C242.038 48.3067 241.971 48.5067 241.971 48.72C241.971 48.9067 241.825 49.0267 241.531 49.08V49.48C241.398 49.56 241.265 49.6667 241.131 49.8C240.998 49.9333 240.918 50.08 240.891 50.24L241.051 50.36H240.931C240.878 50.5467 240.785 50.72 240.651 50.88C240.545 51.04 240.425 51.2 240.291 51.36L240.411 51.6C240.305 51.7867 240.198 52 240.091 52.24C240.011 52.48 239.905 52.6933 239.771 52.88L239.651 52.72V52.84C239.651 53.0533 239.611 53.2 239.531 53.28C239.451 53.3333 239.358 53.4667 239.251 53.68C239.278 53.7067 239.238 53.9333 239.131 54.36C239.025 54.7867 238.905 55.2933 238.771 55.88C238.638 56.4667 238.505 57.0133 238.371 57.52C238.265 58 238.211 58.32 238.211 58.48L237.971 58.64C238.051 58.7467 238.091 58.9067 238.091 59.12C238.091 59.3067 238.065 59.4933 238.011 59.68C237.985 59.8667 237.945 60.0267 237.891 60.16C237.998 60.4267 238.051 60.92 238.051 61.64C238.051 61.9333 238.025 62.2133 237.971 62.48C237.945 62.7467 237.891 62.92 237.811 63L238.131 63.16L238.291 65C238.451 65 238.545 65.0533 238.571 65.16C238.625 65.24 238.611 65.3467 238.531 65.48C238.745 65.6667 238.891 65.8133 238.971 65.92C239.078 66.0267 239.131 66.2267 239.131 66.52L239.331 66.6L239.491 67.16C239.785 67.08 240.065 67.1467 240.331 67.36C240.625 67.5733 240.905 67.7733 241.171 67.96C241.438 68.1467 241.691 68.2 241.931 68.12L242.091 68.44L242.171 68.32C242.545 68.32 242.851 68.36 243.091 68.44C243.358 68.52 243.505 68.76 243.531 69.16L243.451 69.28ZM251.671 69.72C251.484 69.72 251.324 69.68 251.191 69.6C251.324 69.6533 251.431 69.6 251.511 69.44L251.351 69.16L252.071 69.08L252.151 68.84C252.417 68.6533 252.711 68.5867 253.031 68.64C253.111 68.5067 253.084 68.4133 252.951 68.36C253.271 68.2533 253.551 68.0133 253.791 67.64C254.057 67.2933 254.311 67.1067 254.551 67.08C254.577 67.0533 254.551 66.9733 254.471 66.84C254.577 66.76 254.764 66.5867 255.031 66.32C255.324 66.0267 255.471 65.8267 255.471 65.72L255.791 65.56C255.737 65.5867 255.671 65.5733 255.591 65.52C255.537 65.44 255.537 65.3733 255.591 65.32L256.111 65L255.991 64.68C256.151 64.5467 256.324 64.3067 256.511 63.96C256.697 63.5867 256.884 63.24 257.071 62.92C257.257 62.5733 257.417 62.3867 257.551 62.36C257.551 62.1733 257.564 61.9867 257.591 61.8C257.617 61.6133 257.644 61.4267 257.671 61.24H258.031V61.12L257.791 61C257.977 60.76 258.137 60.4533 258.271 60.08C258.404 59.68 258.457 59.3333 258.431 59.04H258.591L258.671 58.32L258.911 58.16V57.2L259.151 57.12L259.071 56.64L259.231 56.4L259.071 56.08C259.124 55.5467 259.191 55.0933 259.271 54.72C259.351 54.3467 259.364 53.8667 259.311 53.28L259.471 53.16C259.284 52.8933 259.177 52.4533 259.151 51.84C259.124 51.2267 259.097 50.76 259.071 50.44L259.231 50.28L258.911 50.24C258.857 49.84 258.751 49.48 258.591 49.16L258.751 49.08C258.564 48.9733 258.417 48.84 258.311 48.68C258.231 48.4933 258.137 48.3067 258.031 48.12L258.191 47.96C257.977 47.88 257.751 47.7733 257.511 47.64C257.297 47.5067 257.111 47.3467 256.951 47.16C257.004 47.1067 257.031 47.0533 257.031 47C257.031 46.84 256.937 46.7333 256.751 46.68C256.751 46.7333 256.711 46.76 256.631 46.76C256.551 46.76 256.431 46.7333 256.271 46.68C256.111 46.6 255.991 46.5467 255.911 46.52H255.991L256.271 46.36H255.551L255.351 46.12C255.164 46.2 254.924 46.24 254.631 46.24C254.417 46.24 254.204 46.2 253.991 46.12C253.964 46.0133 253.937 45.8933 253.911 45.76C253.884 45.6267 253.857 45.5067 253.831 45.4H253.911C253.964 45.4 254.017 45.4267 254.071 45.48C254.151 45.5067 254.204 45.5333 254.231 45.56V45.48C254.231 45.3733 254.337 45.32 254.551 45.32C254.764 45.32 254.924 45.3467 255.031 45.4C255.191 45.5867 255.324 45.7067 255.431 45.76C255.537 45.8133 255.631 45.84 255.711 45.84C255.764 45.84 255.817 45.84 255.871 45.84C255.951 45.8133 256.004 45.8 256.031 45.8C256.164 45.8 256.297 45.8533 256.431 45.96L256.591 46.36C257.044 46.28 257.444 46.44 257.791 46.84C258.137 47.24 258.431 47.5867 258.671 47.88L258.751 47.64C258.991 48.0133 259.284 48.44 259.631 48.92C260.004 49.4 260.324 49.9067 260.591 50.44C260.857 50.9467 260.964 51.44 260.911 51.92H261.151C261.177 52.0267 261.244 52.3467 261.351 52.88C261.457 53.3867 261.511 53.8267 261.511 54.2C261.511 54.6 261.417 54.72 261.231 54.56V54.88C261.364 54.88 261.444 54.9333 261.471 55.04C261.524 55.12 261.551 55.2 261.551 55.28C261.471 55.44 261.431 55.6267 261.431 55.84C261.431 56.0267 261.444 56.2133 261.471 56.4C261.497 56.5867 261.511 56.7733 261.511 56.96C261.511 57.1733 261.471 57.3867 261.391 57.6H261.231L261.311 58.32L260.991 58.8L261.071 59.44L260.671 59.84L260.751 60.08C260.697 60.2133 260.617 60.3467 260.511 60.48C260.404 60.6133 260.324 60.76 260.271 60.92L260.591 61L260.431 61.4H260.111C260.111 61.8267 260.057 62.16 259.951 62.4C259.844 62.6133 259.737 62.92 259.631 63.32L259.391 63.24C259.417 63.48 259.337 63.7867 259.151 64.16C258.964 64.5067 258.751 64.7067 258.511 64.76C258.537 64.9467 258.471 65.16 258.311 65.4C258.177 65.64 258.031 65.8267 257.871 65.96V66.04L257.671 65.96C257.671 66.1733 257.577 66.3733 257.391 66.56C257.231 66.72 257.084 66.8933 256.951 67.08C256.897 67.0267 256.831 67 256.751 67C256.671 67 256.617 67.0533 256.591 67.16L256.831 67.28C256.644 67.3867 256.471 67.52 256.311 67.68C256.151 67.84 255.937 67.9467 255.671 68L255.591 68.24L255.191 68.52L254.951 68.36C255.031 68.4667 255.004 68.5333 254.871 68.56C254.737 68.5867 254.684 68.5467 254.711 68.44L254.551 68.84L254.111 68.96V69.16C253.791 69.1867 253.391 69.28 252.911 69.44C252.457 69.6267 252.044 69.72 251.671 69.72Z" fill="#041A3F"/>
<path d="M27 17.5H67C69.4853 17.5 71.5 19.5147 71.5 22V51C71.5 53.4853 69.4853 55.5 67 55.5H27C24.5147 55.5 22.5 53.4853 22.5 51V22C22.5 19.5147 24.5147 17.5 27 17.5Z" fill="#041A3F" stroke="#041A3F" stroke-width="3"/>
<rect x="16" y="65" width="61" height="2" rx="1" fill="#041A3F" stroke="#041A3F" stroke-width="2"/>
</svg>
